<?xml version="1.0" encoding="UTF-8"?>
<svg id="Calque_2" data-name="Calque 2" xmlns="http://www.w3.org/2000/svg" viewBox="0 0 254.5 254.21">
  <defs>
    <style>
      .cls-1 {
        fill: #f7fbfc;
      }

      .cls-1, .cls-2, .cls-3, .cls-4, .cls-5, .cls-6, .cls-7, .cls-8, .cls-9, .cls-10, .cls-11, .cls-12, .cls-13, .cls-14, .cls-15, .cls-16, .cls-17, .cls-18, .cls-19, .cls-20, .cls-21, .cls-22, .cls-23, .cls-24, .cls-25, .cls-26, .cls-27, .cls-28, .cls-29, .cls-30, .cls-31, .cls-32, .cls-33, .cls-34, .cls-35, .cls-36, .cls-37, .cls-38, .cls-39, .cls-40, .cls-41, .cls-42, .cls-43, .cls-44, .cls-45, .cls-46, .cls-47, .cls-48, .cls-49, .cls-50 {
        stroke-width: 0px;
      }

      .cls-2 {
        fill: #f2f9fb;
      }

      .cls-3 {
        fill: #4accf1;
      }

      .cls-4 {
        fill: #75e4f8;
      }

      .cls-5 {
        fill: #5fd7f5;
      }

      .cls-6 {
        fill: #47caf1;
      }

      .cls-7 {
        fill: #78e5f9;
      }

      .cls-8 {
        fill: #5cd5f4;
      }

      .cls-9 {
        fill: #4dcdf2;
      }

      .cls-10 {
        fill: #46c9f1;
      }

      .cls-11 {
        fill: #70e1f8;
      }

      .cls-12 {
        fill: #43c8f0;
      }

      .cls-13 {
        fill: #33bfee;
      }

      .cls-14 {
        fill: #2abaec;
      }

      .cls-15 {
        fill: #29b9ec;
      }

      .cls-16 {
        fill: #6bdef7;
      }

      .cls-17 {
        fill: #51cff2;
      }

      .cls-18 {
        fill: #2cbbec;
      }

      .cls-19 {
        fill: #38c2ee;
      }

      .cls-20 {
        fill: #25b7eb;
      }

      .cls-21 {
        fill: #37c1ee;
      }

      .cls-22 {
        fill: #55d2f3;
      }

      .cls-23 {
        fill: #3cc4ef;
      }

      .cls-24 {
        fill: #34bfee;
      }

      .cls-25 {
        fill: #3ec5ef;
      }

      .cls-26 {
        fill: #40c6f0;
      }

      .cls-27 {
        fill: #21b5eb;
      }

      .cls-28 {
        fill: #1eb3ea;
      }

      .cls-29 {
        fill: #cae9f0;
      }

      .cls-30 {
        fill: #dcf0f5;
      }

      .cls-31 {
        fill: #cfebf1;
      }

      .cls-32 {
        fill: #dff2f6;
      }

      .cls-33 {
        fill: #d8eff4;
      }

      .cls-34 {
        fill: #c5e7ef;
      }

      .cls-35 {
        fill: #d4edf3;
      }

      .cls-36 {
        fill: #c0e5ed;
      }

      .cls-37 {
        fill: #84ecfb;
      }

      .cls-38 {
        fill: #8ff2fd;
      }

      .cls-39 {
        fill: #64daf6;
      }

      .cls-40 {
        fill: #30beed;
      }

      .cls-41 {
        fill: #2ebced;
      }

      .cls-42 {
        fill: #8bf0fc;
      }

      .cls-43 {
        fill: #7ce7f9;
      }

      .cls-44 {
        fill: #89eefb;
      }

      .cls-45 {
        fill: #68dcf6;
      }

      .cls-46 {
        fill: #7fe9fa;
      }

      .cls-47 {
        fill: #e3f3f7;
      }

      .cls-48 {
        fill: #e8f5f8;
      }

      .cls-49 {
        fill: #edf7f9;
      }

      .cls-50 {
        fill: #fefefe;
      }
    </style>
  </defs>
  <g id="Calque_1-2" data-name="Calque 1">
    <g>
      <path class="cls-28" d="m205.79,32.18c12.35,6.56,19.53,16.76,20.97,30.66.7,6.8.64,13.69.73,20.54.03,2.16.62,3.73,2.22,5.21,4.28,3.99,8.4,8.17,12.62,12.23,16.25,15.67,16.23,37.09-.04,52.73-4.13,3.97-8.13,8.1-12.36,11.97-1.83,1.68-2.42,3.47-2.44,5.88-.05,8.09.26,16.24-1.35,24.22-3.55,17.55-19.38,30.67-37.22,31.12-6.1.16-12.21.48-18.31.55-1.92.02-3.25.68-4.54,2.03-4.66,4.86-9.37,9.67-14.15,14.41-14.12,13.96-35.17,13.96-49.25,0-4.43-4.39-8.86-8.78-13.08-13.37-2.01-2.19-4.13-3-7.11-3.15-7.95-.4-16.02.39-23.84-1.34-11.82-2.61-20.74-9.29-26.39-20.12-.45-1.82.97-2.71,1.97-3.71,13.62-13.67,27.27-27.31,40.93-40.94,1.13-1.13,2.22-2.41,4.05-2.4,1.52.18,2.47,1.26,3.5,2.22.81.85,1.62,1.69,2.47,2.5.92.94,1.85,1.87,2.79,2.8.77.81,1.55,1.61,2.35,2.39.77.79,1.55,1.57,2.35,2.34.68.67,1.35,1.35,2.02,2.03.55.56,1.09,1.12,1.64,1.67.75.77,1.52,1.54,2.3,2.28.78.78,1.56,1.56,2.37,2.3,1.14,1.17,2.48,2.02,3.98,2.64.75.32,1.52.57,2.3.8.95.34,1.96.47,2.93.72,6.19.79,11.17-1.62,15.4-5.89,8.93-9.03,17.57-18.34,26.35-27.51,12.05-12.59,24-25.27,36.23-37.7,2.6-2.64,5.14-5.49,5.51-9.5.37-1.76.65-3.54.62-5.34.01-1.92-.25-3.79-.98-5.57-.4-1.05-.83-2.08-1.59-2.94-.79-.96-1.23-2.14-2.04-3.08-.67-.82-1.44-1.53-2.34-2.1-.89-.59-1.75-1.22-2.76-1.61-.61-.22-1.23-.36-1.85-.52-1.65-.35-3.12-1.44-4.91-1.24-1.76.08-3.54-.3-5.26.31-3.73.93-6.79,2.9-9.47,5.66-15.87,16.31-31.41,32.92-47.14,49.36-1.35,1.41-2.53,3.68-5.23,2.56-1.05-.69-1.87-1.62-2.76-2.49-1.07-1.22-2.15-2.44-2.16-4.21.25-1.6,1.43-2.58,2.48-3.63,31.16-31.18,62.32-62.35,93.51-93.49,1.09-1.09,2.01-2.65,3.98-2.27Z"/>
      <path class="cls-22" d="m12.58,153.49c-1.56-.88-2.59-2.28-3.63-3.68-.39-2.46,1.67-3.46,3-4.78,29.66-29.73,59.36-59.41,89.05-89.11,14.71-14.71,29.41-29.44,44.17-44.12,1.25-1.24,2.2-3.17,4.5-2.82.89,1.62,3.32,1.67,3.78,3.72-.56,2.06-2.24,3.26-3.63,4.65C105.84,61.35,61.87,105.34,17.84,149.28c-1.57,1.56-2.51,4.08-5.26,4.22Z"/>
      <path class="cls-8" d="m149.67,8.98c-1.02.91-2.09,1.76-3.05,2.73C101.7,56.61,56.79,101.53,11.89,146.45c-1.05,1.05-1.96,2.23-2.93,3.36-1.77-1.44-3.1-3.19-3.85-5.35,1.43-2.07,3.47-3.54,5.21-5.3C53.71,95.72,97.12,52.3,140.58,8.93c1.43-1.43,2.49-4.01,5.4-2.96,1.47.71,2.99,1.36,3.69,3.01Z"/>
      <path class="cls-16" d="m.82,132.42c-.07-.21-.08-.41-.04-.63-1.03-3.72.1-6.55,2.88-9.32C43.44,82.83,83.15,43.1,122.83,3.34c2.41-2.41,4.86-3.76,8.26-2.63.48.03.96.06,1.44.09.83,1.03.21,1.87-.39,2.67-.75,1-1.68,1.84-2.56,2.72C88.46,47.31,47.35,88.44,6.18,129.51c-1.41,1.41-2.44,4.08-5.37,2.91Z"/>
      <path class="cls-11" d="m131.08.7c-2.96-.4-5.07.82-7.18,2.94C84.16,43.51,44.36,83.32,4.5,123.05c-2.55,2.54-4.3,5.05-3.71,8.74-1.5-4.63-.62-9.13.81-13.59,1.32-1.66,2.85-3.12,4.34-4.62C42.36,77.14,78.82,40.73,115.23,4.27c.96-.96,1.87-2,3.06-2.71,4.24-.66,8.4-2.59,12.8-.86Z"/>
      <path class="cls-39" d="m3.83,142.14c-.96-1.05-1.28-2.35-1.52-3.7-.8-1.57.28-2.58,1.13-3.6.88-1.05,1.91-1.97,2.87-2.94C49.02,89.15,91.82,46.49,134.47,3.69c.92-.92,1.66-2.35,3.39-1.51,1.41.02,2.66.46,3.71,1.42.4,2.46-1.68,3.45-3,4.77-33.73,33.8-67.51,67.56-101.27,101.33-9.87,9.87-19.74,19.76-29.63,29.61-1.12,1.12-2.06,2.55-3.83,2.83Z"/>
      <path class="cls-17" d="m12.58,153.49c2.59-2.68,5.14-5.39,7.77-8.03C63.6,102.2,106.86,58.94,150.13,15.69c1.05-1.05,2.21-1.99,3.32-2.98,1.08.95,2.49,1.53,3.14,2.94-1.19,1.95-3.08,3.23-4.66,4.81C108.4,64.03,64.85,107.59,21.26,151.11c-1.83,1.83-3.15,4.2-5.56,5.44l-3.13-3.06Z"/>
      <path class="cls-4" d="m118.28,1.56c-.68,1.65-1.85,2.92-3.09,4.17C78.51,42.39,41.85,79.06,5.17,115.72c-1.03,1.03-1.85,2.43-3.58,2.48.68-4.83,3.07-8.96,6.22-12.42,5.81-6.41,11.98-12.5,18.45-18.26,18.74-19.25,37.93-38.04,56.87-57.09.96-.97,1.85-2.02,2.99-2.8.27-.22.52-.46.77-.71,6.28-6.38,12.39-12.93,18.89-19.07,3.44-3.25,7.79-5.29,12.51-6.28Z"/>
      <path class="cls-9" d="m15.7,156.55c.7-1.78,1.92-3.16,3.26-4.49C63.64,107.4,108.3,62.73,152.97,18.07c1.04-1.03,1.9-2.38,3.61-2.42.74.75,1.47,1.5,2.21,2.24-.26,1.63-1.57,2.49-2.61,3.53C111.3,66.34,66.4,111.24,21.49,156.13c-1.04,1.04-1.92,2.33-3.53,2.63-.75-.74-1.51-1.48-2.26-2.22Z"/>
      <path class="cls-5" d="m3.83,142.14c.99-1.11,1.92-2.28,2.97-3.33C50.65,94.94,94.51,51.09,138.36,7.21c1.14-1.14,2.14-2.41,3.2-3.61,1.32,1.08,3.35.82,4.41,2.37-2,.14-2.9,1.82-4.1,3.01C97.67,53.16,53.48,97.36,9.27,141.55c-1.2,1.2-2.16,2.83-4.16,2.91-.82-.56-1.36-1.26-1.27-2.32Z"/>
      <path class="cls-45" d="m137.86,2.18c-2.23.62-3.11,2.76-4.56,4.2C90.6,48.99,47.95,91.65,5.32,134.33c-1.2,1.2-2.86,2.11-3,4.11-1.03-1.87-1.63-3.86-1.5-6.02,1.58-.01,2.37-1.25,3.32-2.2C46.19,88.19,88.23,46.14,130.26,4.09c.95-.95,2.2-1.73,2.26-3.29,1.62,1.08,3.8,0,5.34,1.38Z"/>
      <path class="cls-25" d="m166.92,26.17c2.61,1.5,5.49.56,8.23.87,1.31.15,2.69-.22,3.93.52-.19.32-.46.56-.79.73-5.36-.61-8.54,2.71-11.95,6.15-26.13,26.39-52.6,52.45-78.66,78.92-.26.27-.57.47-.91.64-2.15.1-4.1-.34-5.53-2.12-.68-2.43,1.16-3.66,2.52-5.03,10.2-10.26,20.44-20.47,30.67-30.7,15.87-15.87,31.73-31.76,47.65-47.59,1.28-1.27,2.3-3.52,4.85-2.4Z"/>
      <path class="cls-15" d="m194.03,28.33c2.16-.04,4.2.4,6.09,1.46-4.11,3.23-7.67,7.05-11.35,10.74-28.75,28.84-57.69,57.48-86.31,86.46-.17.18-.4.3-.62.41-2.03-.02-2.96-1.34-3.58-3.03-.26-2.02,1.12-3.21,2.34-4.43,29.88-29.92,59.78-59.82,89.7-89.7,1.01-1.01,1.96-2.33,3.74-1.92Z"/>
      <path class="cls-40" d="m183.4,27.67c1.75.03,3.49.05,5.24.08,1.1,2.39-1.01,3.36-2.19,4.56-8.13,8.25-16.37,16.41-24.55,24.62-21.54,21.63-43.27,43.07-64.68,64.83-.17.18-.4.3-.62.41-2.03-.02-2.96-1.34-3.58-3.03-.26-2.02,1.12-3.21,2.34-4.43,18.03-17.87,35.87-35.94,53.93-53.79,9-8.9,18.31-17.51,26.82-26.91,2.16-2.38,4.55-4.58,7.29-6.34Z"/>
      <path class="cls-12" d="m166.92,26.17c-1.58.02-2.36,1.26-3.31,2.21-26.59,26.57-53.17,53.16-79.75,79.74-1.05,1.05-2.29,1.98-2.33,3.67-1.9,1.15-3.89.9-5.89.37-1.04-.46-1.11-1.21-.64-2.13.53-1.01,1.34-1.79,2.14-2.58,27.39-27.41,54.79-54.82,82.22-82.18,1.2-1.2,2.23-3.26,4.61-2.12,1.21.78,2.23,1.75,2.95,3.01Z"/>
      <path class="cls-27" d="m205.79,32.18c-.93.81-1.91,1.58-2.79,2.45-31.41,31.4-62.81,62.8-94.21,94.21-.96.96-2.09,1.79-2.58,3.14-.35.12-.71.13-1.07.04-1.1-.57-1.52-1.53-1.6-2.7.22-2.15,1.69-3.55,3.09-4.95,30.52-30.55,61.06-61.08,91.61-91.6,1.09-1.09,2.04-2.6,4-2.19,1.34.19,2.54.68,3.54,1.6Z"/>
      <path class="cls-6" d="m163.98,23.16c-1.42,0-2.19,1.05-3.06,1.92-28.14,28.13-56.27,56.27-84.4,84.41-.61.61-1.08,1.35-1.61,2.02-1.58,2.44-4.02,2.55-6.55,2.45-1.17-1.05-.46-2.03.18-2.95.57-.82,1.33-1.48,2.04-2.18,28.73-28.74,57.46-57.48,86.23-86.18,1.15-1.14,2.01-3.02,4.21-2.5,1.21.78,2.21,1.78,2.96,3.01Z"/>
      <path class="cls-20" d="m202.25,30.58c-1.12.97-2.31,1.89-3.35,2.93-30.39,30.37-60.77,60.76-91.16,91.14-1.5,1.5-3.03,2.96-3.74,5.04-1.45-.08-2.24-.8-2.22-2.3.06-1.7,1.35-2.59,2.39-3.63,30.52-30.53,61.04-61.05,91.55-91.58,1.25-1.25,2.45-2.49,4.42-2.39.79.05,1.58.1,2.13.79Z"/>
      <path class="cls-18" d="m96.56,122.06c.11-2,1.76-2.93,2.96-4.13,28.76-28.8,57.55-57.58,86.32-86.38,1.11-1.11,2.65-1.97,2.8-3.81,1.82-.04,3.68-.4,5.39.58-1.03.88-2.13,1.71-3.09,2.66-29.84,29.81-59.66,59.64-89.47,89.48-1.12,1.12-2.6,2.03-2.67,3.88-1.55.02-2.34-.7-2.23-2.29Z"/>
      <path class="cls-13" d="m183.4,27.67c-4.78,5.14-9.06,10.75-14.58,15.18-.97.78-1.86,1.64-2.74,2.52-23.27,23.26-46.53,46.51-69.77,69.79-1.11,1.11-2.63,1.99-2.71,3.85-1.7.27-2.34-.84-2.82-2.16-.19-2.66,1.9-3.93,3.44-5.47,26.94-26.99,53.92-53.95,80.87-80.93.97-.97,1.99-1.87,3.09-2.7.3-.06.6-.12.9-.18,1.44.03,2.88.06,4.32.1Z"/>
      <path class="cls-3" d="m161.01,20.15c-1.03.89-2.11,1.73-3.08,2.69-29.01,28.99-58.01,57.99-86.99,87.01-1.11,1.11-2.65,1.97-2.77,3.83-2.33,3.47-5.42,6.31-7.95,9.62-2.02.54-3.38,2.01-4.78,3.42-10.47,10.47-20.93,20.95-31.42,31.4-1.13,1.12-2.07,2.54-3.8,2.87-.25-.24-.5-.48-.74-.73-.6-1.02-.35-1.89.42-2.71.6-.63,1.22-1.25,1.83-1.87C66.4,111.01,111.07,66.32,155.78,21.68c1.18-1.17,2.04-3.45,4.51-2.28.24.25.48.5.72.75Z"/>
      <path class="cls-3" d="m160.29,19.4c-1.71.05-2.57,1.41-3.6,2.44C111.75,66.77,66.82,111.7,21.9,156.64c-1.04,1.04-2.36,1.92-2.42,3.62-.5-.5-1.01-1-1.51-1.5.8-.95,1.53-1.96,2.4-2.83C65.56,110.71,110.76,65.51,155.98,20.31c.87-.87,1.88-1.61,2.82-2.42.5.5,1,1,1.49,1.51Z"/>
      <path class="cls-14" d="m29.22,198.34c-.81-.85-.77-1.92-.74-2.98-.88-2.67.04-4.84,1.91-6.72,12.26-12.32,24.55-24.59,36.86-36.86.88-.87,1.77-1.76,3.12-1.89,2.23.49,3.65,1.8,4.08,4.09-1.2,2.59-3.81,3.81-5.7,5.73-11.85,11.99-23.8,23.89-35.74,35.79-1.12,1.11-2.04,2.54-3.79,2.84Z"/>
      <path class="cls-43" d="m86.88,26.91v.75c-2.55,1.01-4.64,2.54-6.62,4.54-15.95,16.18-32.06,32.19-48.14,48.25-.7.7-1.39,1.45-2.3,1.87-1.16.53-2.21.66-2.41-1.06,0-1.27-.03-2.54.02-3.8.96-2.13,2.99-3.27,4.55-4.84,13.93-14.02,27.94-27.97,41.89-41.97,1.05-1.06,2.22-1.99,3.26-3.05,3.17-1.31,6.51-.28,9.75-.69Z"/>
      <path class="cls-10" d="m20.22,160.99c2.92-3.89,6.64-7.01,10.03-10.44,8.46-8.56,17-17.03,25.51-25.55,1.23-1.23,2.34-2.66,4.39-2.25.69,3.21.24,6.4-.22,9.58-5.87,1.38-8.85,6.46-12.79,10.23-6.66,6.37-13.06,13-19.6,19.5-1.04,1.03-1.92,2.34-3.55,2.59-1.5-.97-2.7-2.25-3.78-3.66Z"/>
      <path class="cls-46" d="m77.13,27.6c.05,1.6-1.2,2.39-2.14,3.34-14.62,14.64-29.25,29.27-43.89,43.89-.95.95-1.74,2.19-3.31,2.22-1.08-3.54-.11-6.31,2.58-8.95,12.47-12.28,24.79-24.69,37.14-37.09,1.33-1.33,2.74-2.5,4.41-3.34,1.74-.02,3.48-.04,5.22-.07Z"/>
      <path class="cls-41" d="m70.75,150.25c-.96.77-2,1.45-2.87,2.32-12.13,12.1-24.23,24.23-36.37,36.32-1.84,1.83-3.26,3.73-3.02,6.48-1.27-2.88-.77-5.91-.79-8.9-.29-.49-.31-1.02-.19-1.56,12.2-12.42,24.59-24.65,36.9-36.96.88-.88,1.79-1.76,3.18-1.76,2,.63,3.5,1.65,3.17,4.08Z"/>
      <path class="cls-20" d="m29.22,198.34c2.92-3.06,5.79-6.17,8.77-9.16,10.02-10.07,20.1-20.09,30.12-30.17,1.85-1.87,3.79-3.59,6.08-4.89,1.69.38,3.15.99,3.12,3.1-14.51,14.49-29,29.01-43.52,43.5-.87.87-1.66,1.89-3.03,2.03-.95-1.31-1.49-2.77-1.55-4.4Z"/>
      <path class="cls-37" d="m71.91,27.67c-4.06,4.18-8.08,8.41-12.18,12.54-9.46,9.51-18.89,19.06-28.5,28.41-2.51,2.44-4.09,4.88-3.45,8.43,0,1.49,0,2.99-.01,4.48-.21.36-.43.36-.66.02-.26-5.51-.03-11,.65-16.47,1.32-2.16,3.4-3.6,5.14-5.36,10.03-10.18,20.29-20.12,30.21-30.41.62-.64,1.3-1.14,2.05-1.58,2.25-.02,4.5-.04,6.75-.06Z"/>
      <path class="cls-26" d="m24,164.65c6.09-7.01,13.01-13.22,19.48-19.87,4.06-4.17,8.31-8.16,12.3-12.39,1.86-1.97,2.53-.9,3.29.78,1.21.6,1.53,1.59,1.25,2.85-10.03,10.12-20.12,20.17-30.23,30.22-.82.82-1.63,1.99-3.15,1.39-.98-.99-1.96-1.98-2.94-2.97Z"/>
      <path class="cls-7" d="m27.11,81.55c.22,0,.44-.01.66-.02,1.12,1.25,1.77.08,2.4-.55,17.15-17.38,34.85-34.22,51.55-52.04,1.63-1.74,3.41-1.03,5.16-1.27-.28.41-.51.86-.86,1.21-18.98,19-37.98,38-56.97,56.99-.79.79-1.53,1.67-2.8,1.65,1.22-1.85.56-3.98.86-5.97Z"/>
      <path class="cls-27" d="m30.77,202.74c5.2-5.32,10.35-10.67,15.59-15.94,9.01-9.06,18.06-18.09,27.11-27.11,1.12-1.11,2.04-2.58,3.88-2.65,1.05-.16,1.69.42,2.21,1.22.13.35.13.69-.01,1.04-1.24.02-2.04.81-2.84,1.61-14.54,14.55-29.08,29.09-43.61,43.64-.34.35-.57.81-.86,1.21-.83-.84-1.34-1.84-1.48-3.03Z"/>
      <path class="cls-23" d="m26.94,167.63c9.04-8.09,17.17-17.1,25.94-25.47,2.2-2.1,3.82-4.9,6.9-5.99,1.57.77,2.03,2.12,1.99,3.75-.51,1.48-1.72,2.42-2.76,3.46-8.79,8.81-17.45,17.76-26.47,26.32-3.06,2.9-4.33,5.87-3.63,9.86-.01,1.82.24,3.69-1.03,5.25-.06.55-.11,1.09-.17,1.64-1.18-6.24-.33-12.56-.76-18.83Z"/>
      <path class="cls-44" d="m65.17,27.73c-.65,1.51-1.65,2.75-2.81,3.91-10.24,10.2-20.46,20.42-30.66,30.66-1.16,1.17-2.41,2.15-3.93,2.78.05-2.02-.34-4.1.74-5.99,10.04-10.4,20.18-20.69,30.67-30.63,1.95-.64,3.93-.98,5.98-.73Z"/>
      <path class="cls-42" d="m59.18,28.46c-.59,1.24-1.28,2.39-2.27,3.38-8.55,8.51-17.08,17.06-25.61,25.59-.79.79-1.53,1.67-2.79,1.66.03-2.47.63-4.77,2.16-6.76,5.43-5.81,11.24-11.24,16.78-16.95,1.47-1.51,3.14-2.83,4.26-4.66,2.52-.66,4.73-2.34,7.47-2.27Z"/>
      <path class="cls-38" d="m51.72,30.73c.08,1.18-.32,2.13-1.17,2.98-5.68,5.65-11.32,11.34-17.04,16.96-.76.75-1.88,1.12-2.84,1.67,2.93-9.12,9.46-15.1,17.37-19.84,1.16-.7,2.45-1.18,3.67-1.77Z"/>
      <path class="cls-36" d="m194.63,103.24c-.28,3.91-2.82,6.56-5.3,9.15-14.45,15.13-28.98,30.19-43.45,45.3-6.55,6.83-12.96,13.79-19.56,20.57-4.45,4.57-9.74,7.18-16.37,5.84,2.51-1.37,4.59-3.24,6.61-5.27,24.05-24.14,48.15-48.23,72.29-72.29,1.57-1.57,2.85-3.97,5.77-3.3Z"/>
      <path class="cls-35" d="m190.12,85.3c1.4.54,1.5,2.02,2.23,3.05.35,1.8-1.02,2.71-2.03,3.72-28.57,28.61-57.15,57.2-85.76,85.77-1.2,1.2-2.36,2.73-4.46,1.82-.75-.74-1.5-1.48-2.25-2.21.39-1.55,1.61-2.48,2.65-3.53,28.6-28.61,57.19-57.21,85.81-85.8,1.12-1.12,2.06-2.55,3.82-2.82Z"/>
      <path class="cls-31" d="m100.09,179.66c1.37-.06,2.24-.96,3.13-1.85,29.41-29.42,58.83-58.84,88.25-88.27.35-.35.59-.79.89-1.19,1.09.6,1.4,1.64,1.58,2.76.84,2.46-1.08,3.65-2.42,5-12.74,12.8-25.57,25.53-38.29,38.35-15.71,15.83-31.75,31.33-47.15,47.45-.35.37-.77.62-1.27.74-1.93-.43-3.45-1.5-4.71-2.99Z"/>
      <path class="cls-49" d="m110.91,137.41c1.98,1.31,2.63-.65,3.52-1.57,15.9-16.61,31.76-33.25,47.63-49.9,2.79-2.92,5.8-5.44,10.01-5.93.82-.42,1.77-.67,2.34.17.46.66-.12,1.42-.56,2.02-.66.91-1.49,1.68-2.28,2.47-26.5,26.51-53,53.02-79.54,79.5-1.24,1.23-2.18,3.2-4.51,2.73-1.2-.8-2.2-1.8-2.96-3.02,5.83-6.37,12.13-12.28,18.21-18.4,2.69-2.71,5.2-5.6,8.13-8.06Z"/>
      <path class="cls-29" d="m104.8,182.65c.7-1.94,2.12-3.32,3.54-4.74,27.56-27.54,55.11-55.09,82.64-82.66,1.2-1.2,2.83-2.15,2.95-4.14,1.26,1.86,1.61,3.94,1.44,6.14-1.31,1.66-2.84,3.12-4.34,4.61-26.21,26.2-52.4,52.42-78.63,78.6-1.51,1.51-2.77,3.73-5.55,2.93-.77-.01-1.53-.03-2.05-.74Z"/>
      <path class="cls-48" d="m87.53,166.89c.85-.71,1.77-1.36,2.55-2.15,27.27-27.25,54.52-54.51,81.78-81.77.53-.53,1.16-.99,1.55-1.61,1.35-2.14-.83-.96-1.33-1.37,1.95-1.13,4.04-.72,6.11-.56,1.69.75,1.26,1.91.54,3.05-.67,1.06-1.62,1.88-2.5,2.76-27.09,27.1-54.17,54.2-81.31,81.25-1.37,1.37-2.47,3.73-5.19,2.64-.73-.75-1.47-1.5-2.2-2.25Z"/>
      <path class="cls-34" d="m106.85,183.39c1.98-.12,2.96-1.72,4.16-2.92,26.85-26.82,53.68-53.66,80.53-80.48,1.11-1.11,1.97-2.65,3.83-2.74.46,2.08-.13,4.04-.74,5.98-1.93.71-3.3,2.16-4.71,3.57-25.3,25.37-50.62,50.72-75.87,76.15-1.32,1.33-2.71.88-4.1,1.14-1.1.03-2.2.11-3.11-.71Z"/>
      <path class="cls-47" d="m89.73,169.14c1.71-.06,2.58-1.39,3.62-2.43,27.78-27.76,55.54-55.53,83.29-83.32,1.04-1.04,2.95-1.9,1.55-3.96,1.92-.26,3.5.8,5.21,1.37.49,1.84-.99,2.7-1.98,3.7-28.32,28.38-56.67,56.73-85.04,85.05-1.18,1.17-2.28,2.84-4.42,1.84-.74-.75-1.47-1.51-2.21-2.26Z"/>
      <path class="cls-33" d="m190.12,85.3c-.81.93-1.57,1.92-2.45,2.8-28.9,28.92-57.8,57.82-86.72,86.72-.96.96-2.07,1.76-3.12,2.63-.74-.75-1.47-1.51-2.21-2.26,1.15-2.32,3.45-3.53,5.19-5.28,28.04-28.13,56.14-56.2,84.22-84.29.88-.88,1.64-1.89,2.85-2.37,1,.41,1.76,1.07,2.25,2.04Z"/>
      <path class="cls-30" d="m187.87,83.26c-.14,1.55-1.41,2.3-2.35,3.25-28.46,28.48-56.93,56.95-85.39,85.44-1.34,1.34-2.73,2.55-4.51,3.25-.49-.5-.98-1.01-1.47-1.52.5-1.95,2.13-3.02,3.43-4.32,27.17-27.2,54.35-54.39,81.55-81.55,2.02-2.02,3.85-4.2,5.77-6.31,1.25.15,2.11.95,2.97,1.76Z"/>
      <path class="cls-32" d="m184.91,81.49c.17,1.52-.64,2.56-1.65,3.57-29.11,29.09-58.2,58.19-87.31,87.28-.52.52-1.19.89-1.78,1.33-.74-.76-1.48-1.52-2.22-2.27,1.39-.04,2.22-.99,3.11-1.88,29.07-29.08,58.15-58.15,87.22-87.24.43-.43.76-.98,1.13-1.47.62-.03,1.15.14,1.51.68Z"/>
      <path class="cls-1" d="m79.55,159.3c-.05-.23-.11-.46-.19-.68.09-1.08.83-1.78,1.53-2.48,7.69-7.75,15.45-15.44,23.14-23.19.44-.45.96-.78,1.54-1.02.22-.01.43,0,.64.05.83,1.05,1.67,2.09,2.5,3.14.51,1.64-.68,2.55-1.61,3.49-7.06,7.14-14.17,14.23-21.3,21.3-.92.92-1.78,2.18-3.44,1.69-.94-.77-1.88-1.54-2.82-2.31Z"/>
      <path class="cls-2" d="m82.37,161.61c9.08-8.53,18.01-17.2,26.34-26.48.73.76,1.46,1.52,2.2,2.28-.05,1.38-.96,2.24-1.84,3.13-7.23,7.22-14.46,14.45-21.68,21.68-.8.8-1.56,1.64-2.81,1.65-.95-.54-1.69-1.28-2.2-2.26Z"/>
      <path class="cls-50" d="m105.57,131.94c-.18.45-.24,1.03-.56,1.34-8.55,8.45-16.72,17.28-25.65,25.34-.67-.53-1.34-1.06-2.01-1.58-.53-1.53-2.48-1.54-3.15-2.92-.63-1.76-2.15-2.72-3.45-3.87-.89-1.43-2.04-2.61-3.43-3.56-1.41-.54-2.38-1.65-3.44-2.65-1.08-1.22-2.49-2.25-2.47-4.13-.54-1.25-1.09-2.5-1.63-3.75-.24-1-.48-1.99-.71-2.99.19-3.49-.35-7.06,1.09-10.42,1.88-3.72,4.52-6.78,8.02-9.08,2.24-.72,4.49-1.44,6.73-2.15,2.21.09,4.42.19,6.62.28,1.79.59,3.57,1.19,5.36,1.78,2.39-.2,3.48,1.41,4.46,3.19.75.75,1.5,1.5,2.25,2.25.76,1.24,1.75,2.26,2.97,3.05.74.76,1.48,1.53,2.23,2.29.99,1.01,1.98,2.03,2.97,3.04.74.77,1.48,1.53,2.22,2.3.53.75,1.06,1.5,1.59,2.25Z"/>
      <path class="cls-19" d="m91.35,116.76c-1.49-1.06-2.97-2.12-4.46-3.19.17-1.83,1.72-2.68,2.83-3.79,25.95-25.99,52-51.87,77.78-78.02,3.24-3.29,6.35-4.69,10.68-4.01-.18,1.83-1.7,2.69-2.81,3.81-27.09,27.13-54.21,54.23-81.3,81.35-1.11,1.11-2.63,1.99-2.72,3.85Z"/>
      <path class="cls-24" d="m64.37,143.67c1.21.78,2.22,1.76,2.95,3.02-11.88,11.78-23.76,23.56-35.66,35.32-1.12,1.1-1.97,2.62-3.79,2.81-.02-2-.04-4-.06-6.01,1.01-1.94,2.85-3.11,4.33-4.6,9.31-9.36,18.63-18.7,28.01-27.99,1.16-1.15,2.07-2.95,4.23-2.55Z"/>
      <path class="cls-21" d="m64.37,143.67c-10.71,10.6-21.43,21.19-32.12,31.8-1.33,1.32-2.65,2.63-4.44,3.34-.74-4.02.83-6.81,3.82-9.63,10.11-9.56,19.88-19.48,29.78-29.26.99,1.25,1.97,2.51,2.96,3.76Z"/>
    </g>
  </g>
</svg>