<?xml version="1.0" encoding="UTF-8"?>
<svg id="Calque_2" data-name="Calque 2" xmlns="http://www.w3.org/2000/svg" viewBox="0 0 328.09 218.66">
  <defs>
    <style>
      .cls-1 {
        fill: #fff;
        stroke-width: 0px;
      }
    </style>
  </defs>
  <g id="Calque_1-2" data-name="Calque 1">
    <g>
      <path class="cls-1" d="m0,108.69c3.23-5.5,6.36-11.06,9.7-16.49,17.2-27.96,39.4-50.99,67.64-67.93C98.59,11.51,121.51,3.42,146.23.94c49.87-5,93.33,10.15,131.18,42.35,21.11,17.96,37.42,39.75,50.18,64.28.67,1.29.67,2.23,0,3.52-18.18,34.87-43.18,63.51-77.16,83.76-21,12.51-43.67,20.41-68.06,22.87-49.86,5.02-93.34-10.1-131.2-42.28-20.19-17.16-36.05-37.84-48.51-61.17-.79-1.48-1.34-3.12-2.64-4.29,0-.43,0-.86,0-1.28Zm232.7.59c-.11-37.67-30.58-68.17-68.34-68.4-37.51-.23-68.67,30.91-68.56,68.51.11,37.67,30.59,68.17,68.35,68.4,37.51.23,68.67-30.91,68.56-68.51Z"/>
      <path class="cls-1" d="m164.27,68.28c22.58,0,41,18.4,41.04,40.99.04,22.7-18.53,41.22-41.23,41.12-22.58-.1-40.93-18.57-40.88-41.15.05-22.58,18.49-40.97,41.07-40.96Z"/>
    </g>
  </g>
</svg>