<?xml version="1.0" encoding="utf-8"?>
<!-- Generator: Adobe Illustrator 28.0.0, SVG Export Plug-In . SVG Version: 6.00 Build 0)  -->
<svg version="1.1" id="Calque_2_00000120559844133982581210000003731501459973337535_"
	 xmlns="http://www.w3.org/2000/svg" xmlns:xlink="http://www.w3.org/1999/xlink" x="0px" y="0px" viewBox="0 0 383.2 216.1"
	 style="enable-background:new 0 0 383.2 216.1;" xml:space="preserve">
<style type="text/css">
	.st0{fill:#FFFF00;}
</style>
<g id="Calque_1-2">
	<path class="st0" d="M383.2,132.7c-0.2,0.6-0.5,1.1-0.7,1.7c-2.4,11.1-11,18-22.8,18.3c-11.3,0.3-20.5-6.6-23.2-17.4
		c-0.7-2.8-0.8-5.7-0.8-8.6c0-14.2-0.1-28.5-0.1-42.8c0-0.6-0.1-1.2-0.3-2.5c-1.4,1.4-2.4,2.3-3.4,3.3
		c-32.2,32.4-64.4,64.8-96.6,97.3c-3.4,3.4-6.8,6.6-10.9,9.1c-8.2,5-16.2,4.9-24.3-0.2c-3.5-2.2-6.5-5-9.4-7.9
		c-19.7-19.8-39.5-39.6-59.2-59.5c-2.2-2.2-3.4-2.7-5.9-0.2c-27,27.4-54.2,54.6-81.3,81.8c-1.9,1.9-3.8,4-6,5.6
		c-8.2,6.1-17,6.8-26,2c-8-4.3-12.5-11.2-12-20.4c0.3-7.2,3.1-13.6,8.2-18.8C42.4,139.4,76.4,105.1,110.6,71
		c11.1-11.1,24.9-11,36.4,0.4c19.1,19,38.1,38.2,57.2,57.3c1.6,1.6,3.3,3.1,4.7,4.8c1.5,1.7,2.5,2,4.4,0.1
		c27.5-27.7,55.2-55.4,82.8-83.1c0.6-0.6,1.1-1.3,1.9-2.1c-1.5-0.9-3-0.5-4.5-0.6c-13.1-0.2-26.2-0.1-39.3-0.5
		c-17.1-0.5-27.4-15.1-22.3-31.5C235,6.3,243.2,0.1,254,0.1C277.4,0,300.7,0,324,0c10.2,0,20.5,0,30.7,0c17.5,0,23,3.9,28.5,20.2
		L383.2,132.7L383.2,132.7z"/>
</g>
</svg>
